<svg xmlns="http://www.w3.org/2000/svg" viewBox="0 0 320 320"><defs><radialGradient id="b"><stop stop-color="#581c87"/><stop offset="1" stop-color="#13081f"/></radialGradient><linearGradient id="m" x1="0" y1="0" x2="1" y2="1"><stop stop-color="#d8b4fe"/><stop offset=".45" stop-color="#a855f7"/><stop offset="1" stop-color="#6b21a8"/></linearGradient></defs><rect width="320" height="320" rx="36" fill="url(#b)"/><path d="M160 48c49 7 87 30 91 77 4 44-21 56-8 96 11 34-28 55-83 51-54 4-94-17-83-51 13-40-12-52-8-96 4-47 42-70 91-77Z" fill="url(#m)"/><path d="M115 139q24-24 44 4M161 143q23-28 46-4" fill="none" stroke="#2e1065" stroke-width="8" stroke-linecap="round"/><path d="M132 191q28 22 56 0" fill="none" stroke="#4c1d95" stroke-width="7"/><circle cx="160" cy="113" r="19" fill="#f5d0fe" opacity=".8"/><circle cx="160" cy="113" r="8" fill="#fff"/><path d="M91 232q29-18 48 5M229 232q-29-18-48 5" fill="none" stroke="#e9d5ff" stroke-width="7" opacity=".7"/><circle cx="160" cy="160" r="137" fill="none" stroke="#c084fc" stroke-width="4" opacity=".6"/></svg>