<svg xmlns="http://www.w3.org/2000/svg" viewBox="0 0 320 320"><defs><radialGradient id="b"><stop stop-color="#14532d"/><stop offset="1" stop-color="#07130d"/></radialGradient></defs><rect width="320" height="320" rx="36" fill="url(#b)"/><path d="M160 53q80 14 82 112-4 91-82 104-78-13-82-104 2-98 82-112" fill="#3f9b65"/><path d="M114 82q17-42 46-46 29 4 46 46-20-8-46 5-26-13-46-5" fill="#70c98f"/><path d="M112 139q23-20 43 0M165 139q23-20 43 0" fill="none" stroke="#072015" stroke-width="8"/><path d="M137 191q23 18 46 0" fill="none" stroke="#14532d" stroke-width="7"/><path d="M96 221q25-6 42 15M224 221q-25-6-42 15" fill="none" stroke="#86efac" stroke-width="8"/><path d="M160 55v185" stroke="#bbf7d0" stroke-width="3" opacity=".45"/><circle cx="160" cy="160" r="137" fill="none" stroke="#4ade80" stroke-width="4" opacity=".6"/></svg>